<svg xmlns="http://www.w3.org/2000/svg" xmlns:xlink="http://www.w3.org/1999/xlink" width="250" zoomAndPan="magnify" viewBox="0 0 187.5 187.499992" height="250" preserveAspectRatio="xMidYMid meet" version="1.0"><defs><clipPath id="25df36d95b"><path d="M 0 27.820312 L 187 27.820312 L 187 159.820312 L 0 159.820312 Z M 0 27.820312 " clip-rule="nonzero"/></clipPath><clipPath id="75acaafd67"><path d="M 123 57 L 126.886719 57 L 126.886719 61 L 123 61 Z M 123 57 " clip-rule="nonzero"/></clipPath><clipPath id="01802a387b"><path d="M 123 63 L 126.886719 63 L 126.886719 67 L 123 67 Z M 123 63 " clip-rule="nonzero"/></clipPath><clipPath id="1aa6975786"><path d="M 60.886719 57 L 65 57 L 65 61 L 60.886719 61 Z M 60.886719 57 " clip-rule="nonzero"/></clipPath><clipPath id="9e7cd8475a"><path d="M 60.886719 63 L 65 63 L 65 67 L 60.886719 67 Z M 60.886719 63 " clip-rule="nonzero"/></clipPath><clipPath id="0f4bb000e0"><path d="M 73 42.292969 L 115 42.292969 L 115 121 L 73 121 Z M 73 42.292969 " clip-rule="nonzero"/></clipPath></defs><g clip-path="url(#25df36d95b)"><path fill="#000000" d="M 27.289062 40.796875 L 160.207031 40.796875 L 160.207031 124.917969 L 27.289062 124.917969 Z M 22.910156 129.300781 L 164.585938 129.300781 L 164.585938 36.414062 L 22.910156 36.414062 Z M 180.636719 155.410156 C 178.816406 155.425781 126.890625 155.4375 81.429688 155.4375 C 36.542969 155.4375 8.664062 155.425781 6.859375 155.410156 C 5.824219 155.402344 5.222656 153.53125 4.875 152.804688 L 182.054688 152.804688 C 181.601562 153.585938 181.085938 155.40625 180.636719 155.410156 Z M 16.914062 137.9375 L 170.582031 137.9375 L 180.277344 148.421875 L 7.21875 148.421875 Z M 18.144531 34.816406 C 18.144531 33.375 19.320312 32.207031 20.765625 32.207031 L 166.738281 32.207031 C 168.179688 32.207031 169.347656 33.375 169.347656 34.816406 L 169.347656 133.511719 L 18.144531 133.511719 Z M 186.789062 149.011719 L 173.726562 134.886719 L 173.726562 34.816406 C 173.726562 30.957031 170.59375 27.820312 166.738281 27.820312 L 20.765625 27.820312 C 16.90625 27.820312 13.765625 30.957031 13.765625 34.816406 L 13.765625 134.886719 L 0.601562 149.125 C 0.234375 149.523438 0.0195312 150.078125 0.0195312 150.617188 C 0.0234375 153.339844 1.453125 159.742188 6.816406 159.792969 C 8.636719 159.8125 36.53125 159.820312 81.429688 159.820312 C 126.902344 159.820312 178.84375 159.808594 180.679688 159.792969 C 185.210938 159.75 187.019531 152.621094 187.367188 151.320312 C 187.441406 151.097656 187.484375 150.859375 187.484375 150.613281 C 187.484375 149.984375 187.214844 149.414062 186.789062 149.011719 " fill-opacity="1" fill-rule="nonzero"/></g><path stroke-linecap="round" transform="matrix(0.0305273, 0, 0, -0.0303972, 28.984422, 146.290528)" fill="none" stroke-linejoin="round" d="M 1938.197754 1983.809197 L 2311.71091 1983.809197 L 2311.71091 2173.099856 L 1938.197754 2173.099856 Z M 1938.197754 1983.809197 " stroke="#181821" stroke-width="28" stroke-opacity="1" stroke-miterlimit="10"/><path stroke-linecap="round" transform="matrix(0.0305273, 0, 0, -0.0303972, 28.984422, 146.290528)" fill="none" stroke-linejoin="round" d="M 2426.234471 2091.112456 L 2426.234471 2427.415006 L 2680.361613 2681.473142 L 3084.584997 2681.473142 " stroke="#181821" stroke-width="28" stroke-opacity="1" stroke-miterlimit="10"/><path stroke-linecap="round" transform="matrix(0.0305273, 0, 0, -0.0303972, 28.984422, 146.290528)" fill="none" stroke-linejoin="round" d="M 2311.71091 2091.112456 L 2755.473714 2091.112456 L 2755.473714 2456.072044 L 2963.023675 2456.072044 " stroke="#181821" stroke-width="28" stroke-opacity="1" stroke-miterlimit="10"/><path stroke-linecap="round" transform="matrix(0.0305273, 0, 0, -0.0303972, 28.984422, 146.290528)" fill="none" stroke-linejoin="round" d="M 2369.03667 2091.112456 L 2755.473714 1692.227047 L 2912.863635 1692.227047 " stroke="#181821" stroke-width="28" stroke-opacity="1" stroke-miterlimit="10"/><path stroke-linecap="round" transform="matrix(0.0305273, 0, 0, -0.0303972, 28.984422, 146.290528)" fill="none" stroke-linejoin="round" d="M 2573.515609 1879.975624 L 2573.515609 1404.24309 L 2877.162995 1404.24309 " stroke="#181821" stroke-width="28" stroke-opacity="1" stroke-miterlimit="10"/><path stroke-linecap="round" transform="matrix(0.0305273, 0, 0, -0.0303972, 28.984422, 146.290528)" fill="none" stroke-linejoin="round" d="M 2313.374381 1983.809197 L 2313.374381 1368.389665 L 2539.22252 1142.603047 " stroke="#181821" stroke-width="28" stroke-opacity="1" stroke-miterlimit="10"/><path stroke-linecap="round" transform="matrix(0.0305273, 0, 0, -0.0303972, 28.984422, 146.290528)" fill="none" stroke-linejoin="round" d="M 2311.71091 2173.099856 L 2311.71091 2899.163826 " stroke="#181821" stroke-width="28" stroke-opacity="1" stroke-miterlimit="10"/><path stroke-linecap="round" transform="matrix(0.0305273, 0, 0, -0.0303972, 28.984422, 146.290528)" fill="none" stroke-linejoin="round" d="M 2691.110193 1404.24309 L 2691.110193 1189.508064 L 2848.500114 1032.087115 " stroke="#181821" stroke-width="28" stroke-opacity="1" stroke-miterlimit="10"/><path stroke-linecap="round" transform="matrix(0.0305273, 0, 0, -0.0303972, 28.984422, 146.290528)" fill="none" stroke-linejoin="round" d="M 2725.275322 2681.473142 L 2915.038943 2871.277829 L 3084.584997 2871.277829 " stroke="#181821" stroke-width="28" stroke-opacity="1" stroke-miterlimit="10"/><path stroke-linecap="round" transform="matrix(0.0305273, 0, 0, -0.0303972, 28.984422, 146.290528)" fill="none" stroke-linejoin="round" d="M 2352.401963 2939.772005 C 2352.401963 2917.283298 2334.231744 2899.163826 2311.71091 2899.163826 C 2289.318035 2899.163826 2271.147816 2917.283298 2271.147816 2939.772005 C 2271.147816 2962.132205 2289.318035 2980.251678 2311.71091 2980.251678 C 2334.231744 2980.251678 2352.401963 2962.132205 2352.401963 2939.772005 Z M 2352.401963 2939.772005 " stroke="#181821" stroke-width="28" stroke-opacity="1" stroke-miterlimit="10"/><path stroke-linecap="round" transform="matrix(0.0305273, 0, 0, -0.0303972, 28.984422, 146.290528)" fill="none" stroke-linejoin="round" d="M 2810.368247 3252.814807 C 2810.368247 3230.3261 2792.198029 3212.206628 2769.805154 3212.206628 C 2747.284319 3212.206628 2729.24206 3230.3261 2729.24206 3252.814807 C 2729.24206 3275.175007 2747.284319 3293.422987 2769.805154 3293.422987 C 2792.198029 3293.422987 2810.368247 3275.175007 2810.368247 3252.814807 Z M 2810.368247 3252.814807 " stroke="#181821" stroke-width="28" stroke-opacity="1" stroke-miterlimit="10"/><g clip-path="url(#75acaafd67)"><path stroke-linecap="round" transform="matrix(0.0305273, 0, 0, -0.0303972, 28.984422, 146.290528)" fill="none" stroke-linejoin="round" d="M 3193.222431 2871.149322 C 3193.222431 2848.660615 3175.052212 2830.541143 3152.531378 2830.541143 C 3130.138503 2830.541143 3111.968284 2848.660615 3111.968284 2871.149322 C 3111.968284 2893.509522 3130.138503 2911.757502 3152.531378 2911.757502 C 3175.052212 2911.757502 3193.222431 2893.509522 3193.222431 2871.149322 Z M 3193.222431 2871.149322 " stroke="#181821" stroke-width="28" stroke-opacity="1" stroke-miterlimit="10"/></g><g clip-path="url(#01802a387b)"><path stroke-linecap="round" transform="matrix(0.0305273, 0, 0, -0.0303972, 28.984422, 146.290528)" fill="none" stroke-linejoin="round" d="M 3193.222431 2681.473142 C 3193.222431 2659.112942 3175.052212 2640.993469 3152.531378 2640.993469 C 3130.138503 2640.993469 3111.968284 2659.112942 3111.968284 2681.473142 C 3111.968284 2703.961849 3130.138503 2722.081321 3152.531378 2722.081321 C 3175.052212 2722.081321 3193.222431 2703.961849 3193.222431 2681.473142 Z M 3193.222431 2681.473142 " stroke="#181821" stroke-width="28" stroke-opacity="1" stroke-miterlimit="10"/></g><path stroke-linecap="round" transform="matrix(0.0305273, 0, 0, -0.0303972, 28.984422, 146.290528)" fill="none" stroke-linejoin="round" d="M 3071.53315 2456.072044 C 3071.53315 2433.711844 3053.362931 2415.463864 3030.970056 2415.463864 C 3008.577181 2415.463864 2990.406963 2433.711844 2990.406963 2456.072044 C 2990.406963 2478.432244 3008.577181 2496.680224 3030.970056 2496.680224 C 3053.362931 2496.680224 3071.53315 2478.432244 3071.53315 2456.072044 Z M 3071.53315 2456.072044 " stroke="#181821" stroke-width="28" stroke-opacity="1" stroke-miterlimit="10"/><path stroke-linecap="round" transform="matrix(0.0305273, 0, 0, -0.0303972, 28.984422, 146.290528)" fill="none" stroke-linejoin="round" d="M 2974.66797 1404.24309 C 2974.66797 1381.754383 2956.625711 1363.63491 2934.104877 1363.63491 C 2911.712002 1363.63491 2893.541783 1381.754383 2893.541783 1404.24309 C 2893.541783 1426.60329 2911.712002 1444.722762 2934.104877 1444.722762 C 2956.625711 1444.722762 2974.66797 1426.60329 2974.66797 1404.24309 Z M 2974.66797 1404.24309 " stroke="#181821" stroke-width="28" stroke-opacity="1" stroke-miterlimit="10"/><path stroke-linecap="round" transform="matrix(0.0305273, 0, 0, -0.0303972, 28.984422, 146.290528)" fill="none" stroke-linejoin="round" d="M 2993.989823 1692.227047 C 2993.989823 1669.73834 2975.819604 1651.618867 2953.426729 1651.618867 C 2931.033854 1651.618867 2912.863635 1669.73834 2912.863635 1692.227047 C 2912.863635 1714.587247 2931.033854 1732.706719 2953.426729 1732.706719 C 2975.819604 1732.706719 2993.989823 1714.587247 2993.989823 1692.227047 Z M 2993.989823 1692.227047 " stroke="#181821" stroke-width="28" stroke-opacity="1" stroke-miterlimit="10"/><path stroke-linecap="round" transform="matrix(0.0305273, 0, 0, -0.0303972, 28.984422, 146.290528)" fill="none" stroke-linejoin="round" d="M 2923.612215 999.18935 C 2923.612215 976.82915 2905.441997 958.58117 2883.049122 958.58117 C 2860.656247 958.58117 2842.486028 976.82915 2842.486028 999.18935 C 2842.486028 1021.678057 2860.656247 1039.797529 2883.049122 1039.797529 C 2905.441997 1039.797529 2923.612215 1021.678057 2923.612215 999.18935 Z M 2923.612215 999.18935 " stroke="#181821" stroke-width="28" stroke-opacity="1" stroke-miterlimit="10"/><path stroke-linecap="round" transform="matrix(0.0305273, 0, 0, -0.0303972, 28.984422, 146.290528)" fill="none" stroke-linejoin="round" d="M 2604.609715 1101.994867 C 2604.609715 1079.634667 2586.439497 1061.515195 2564.046622 1061.515195 C 2541.653747 1061.515195 2523.483528 1079.634667 2523.483528 1101.994867 C 2523.483528 1124.483574 2541.653747 1142.603047 2564.046622 1142.603047 C 2586.439497 1142.603047 2604.609715 1124.483574 2604.609715 1101.994867 Z M 2604.609715 1101.994867 " stroke="#181821" stroke-width="28" stroke-opacity="1" stroke-miterlimit="10"/><path stroke-linecap="round" transform="matrix(0.0305273, 0, 0, -0.0303972, 28.984422, 146.290528)" fill="none" stroke-linejoin="round" d="M 2311.71091 2603.983483 L 2594.117054 2886.313136 L 2594.117054 3076.24633 L 2739.222884 3221.330617 " stroke="#181821" stroke-width="28" stroke-opacity="1" stroke-miterlimit="10"/><path stroke-linecap="round" transform="matrix(0.0305273, 0, 0, -0.0303972, 28.984422, 146.290528)" fill="none" stroke-linejoin="round" d="M 1825.721542 2091.112456 L 1825.721542 2427.415006 L 1571.722359 2681.473142 L 1167.371016 2681.473142 " stroke="#181821" stroke-width="28" stroke-opacity="1" stroke-miterlimit="10"/><path stroke-linecap="round" transform="matrix(0.0305273, 0, 0, -0.0303972, 28.984422, 146.290528)" fill="none" stroke-linejoin="round" d="M 1940.245103 2091.112456 L 1496.610258 2091.112456 L 1496.610258 2456.072044 L 1289.060296 2456.072044 " stroke="#181821" stroke-width="28" stroke-opacity="1" stroke-miterlimit="10"/><path stroke-linecap="round" transform="matrix(0.0305273, 0, 0, -0.0303972, 28.984422, 146.290528)" fill="none" stroke-linejoin="round" d="M 1883.047302 2091.112456 L 1496.610258 1692.227047 L 1339.092377 1692.227047 " stroke="#181821" stroke-width="28" stroke-opacity="1" stroke-miterlimit="10"/><path stroke-linecap="round" transform="matrix(0.0305273, 0, 0, -0.0303972, 28.984422, 146.290528)" fill="none" stroke-linejoin="round" d="M 1678.568363 1879.975624 L 1678.568363 1404.24309 L 1374.920977 1404.24309 " stroke="#181821" stroke-width="28" stroke-opacity="1" stroke-miterlimit="10"/><path stroke-linecap="round" transform="matrix(0.0305273, 0, 0, -0.0303972, 28.984422, 146.290528)" fill="none" stroke-linejoin="round" d="M 1938.581632 1983.809197 L 1938.581632 1368.389665 L 1712.861452 1142.603047 " stroke="#181821" stroke-width="28" stroke-opacity="1" stroke-miterlimit="10"/><path stroke-linecap="round" transform="matrix(0.0305273, 0, 0, -0.0303972, 28.984422, 146.290528)" fill="none" stroke-linejoin="round" d="M 1940.245103 2173.099856 L 1940.245103 2899.163826 " stroke="#181821" stroke-width="28" stroke-opacity="1" stroke-miterlimit="10"/><path stroke-linecap="round" transform="matrix(0.0305273, 0, 0, -0.0303972, 28.984422, 146.290528)" fill="none" stroke-linejoin="round" d="M 1560.973779 1404.24309 L 1560.973779 1189.508064 L 1403.583857 1032.087115 " stroke="#181821" stroke-width="28" stroke-opacity="1" stroke-miterlimit="10"/><path stroke-linecap="round" transform="matrix(0.0305273, 0, 0, -0.0303972, 28.984422, 146.290528)" fill="none" stroke-linejoin="round" d="M 1526.68069 2681.473142 L 1336.917069 2871.277829 L 1167.371016 2871.277829 " stroke="#181821" stroke-width="28" stroke-opacity="1" stroke-miterlimit="10"/><path stroke-linecap="round" transform="matrix(0.0305273, 0, 0, -0.0303972, 28.984422, 146.290528)" fill="none" stroke-linejoin="round" d="M 1899.682009 2939.772005 C 1899.682009 2917.283298 1917.852228 2899.163826 1940.245103 2899.163826 C 1962.637978 2899.163826 1980.808196 2917.283298 1980.808196 2939.772005 C 1980.808196 2962.132205 1962.637978 2980.251678 1940.245103 2980.251678 C 1917.852228 2980.251678 1899.682009 2962.132205 1899.682009 2939.772005 Z M 1899.682009 2939.772005 " stroke="#181821" stroke-width="28" stroke-opacity="1" stroke-miterlimit="10"/><path stroke-linecap="round" transform="matrix(0.0305273, 0, 0, -0.0303972, 28.984422, 146.290528)" fill="none" stroke-linejoin="round" d="M 1441.715725 3252.814807 C 1441.715725 3230.3261 1459.885943 3212.206628 1482.278818 3212.206628 C 1504.671693 3212.206628 1522.841912 3230.3261 1522.841912 3252.814807 C 1522.841912 3275.175007 1504.671693 3293.422987 1482.278818 3293.422987 C 1459.885943 3293.422987 1441.715725 3275.175007 1441.715725 3252.814807 Z M 1441.715725 3252.814807 " stroke="#181821" stroke-width="28" stroke-opacity="1" stroke-miterlimit="10"/><g clip-path="url(#1aa6975786)"><path stroke-linecap="round" transform="matrix(0.0305273, 0, 0, -0.0303972, 28.984422, 146.290528)" fill="none" stroke-linejoin="round" d="M 1058.861541 2871.149322 C 1058.861541 2848.660615 1077.03176 2830.541143 1099.424635 2830.541143 C 1121.81751 2830.541143 1139.987728 2848.660615 1139.987728 2871.149322 C 1139.987728 2893.509522 1121.81751 2911.757502 1099.424635 2911.757502 C 1077.03176 2911.757502 1058.861541 2893.509522 1058.861541 2871.149322 Z M 1058.861541 2871.149322 " stroke="#181821" stroke-width="28" stroke-opacity="1" stroke-miterlimit="10"/></g><g clip-path="url(#9e7cd8475a)"><path stroke-linecap="round" transform="matrix(0.0305273, 0, 0, -0.0303972, 28.984422, 146.290528)" fill="none" stroke-linejoin="round" d="M 1058.861541 2681.473142 C 1058.861541 2659.112942 1077.03176 2640.993469 1099.424635 2640.993469 C 1121.81751 2640.993469 1139.987728 2659.112942 1139.987728 2681.473142 C 1139.987728 2703.961849 1121.81751 2722.081321 1099.424635 2722.081321 C 1077.03176 2722.081321 1058.861541 2703.961849 1058.861541 2681.473142 Z M 1058.861541 2681.473142 " stroke="#181821" stroke-width="28" stroke-opacity="1" stroke-miterlimit="10"/></g><path stroke-linecap="round" transform="matrix(0.0305273, 0, 0, -0.0303972, 28.984422, 146.290528)" fill="none" stroke-linejoin="round" d="M 1180.550822 2456.072044 C 1180.550822 2433.711844 1198.721041 2415.463864 1221.113916 2415.463864 C 1243.506791 2415.463864 1261.677009 2433.711844 1261.677009 2456.072044 C 1261.677009 2478.432244 1243.506791 2496.680224 1221.113916 2496.680224 C 1198.721041 2496.680224 1180.550822 2478.432244 1180.550822 2456.072044 Z M 1180.550822 2456.072044 " stroke="#181821" stroke-width="28" stroke-opacity="1" stroke-miterlimit="10"/><path stroke-linecap="round" transform="matrix(0.0305273, 0, 0, -0.0303972, 28.984422, 146.290528)" fill="none" stroke-linejoin="round" d="M 1277.288042 1404.24309 C 1277.288042 1381.754383 1295.458261 1363.63491 1317.851136 1363.63491 C 1340.244011 1363.63491 1358.414229 1381.754383 1358.414229 1404.24309 C 1358.414229 1426.60329 1340.244011 1444.722762 1317.851136 1444.722762 C 1295.458261 1444.722762 1277.288042 1426.60329 1277.288042 1404.24309 Z M 1277.288042 1404.24309 " stroke="#181821" stroke-width="28" stroke-opacity="1" stroke-miterlimit="10"/><path stroke-linecap="round" transform="matrix(0.0305273, 0, 0, -0.0303972, 28.984422, 146.290528)" fill="none" stroke-linejoin="round" d="M 1257.96619 1692.227047 C 1257.96619 1669.73834 1276.136409 1651.618867 1298.657243 1651.618867 C 1320.922159 1651.618867 1339.092377 1669.73834 1339.092377 1692.227047 C 1339.092377 1714.587247 1320.922159 1732.706719 1298.657243 1732.706719 C 1276.136409 1732.706719 1257.96619 1714.587247 1257.96619 1692.227047 Z M 1257.96619 1692.227047 " stroke="#181821" stroke-width="28" stroke-opacity="1" stroke-miterlimit="10"/><path stroke-linecap="round" transform="matrix(0.0305273, 0, 0, -0.0303972, 28.984422, 146.290528)" fill="none" stroke-linejoin="round" d="M 1328.343797 999.18935 C 1328.343797 976.82915 1346.514016 958.58117 1368.906891 958.58117 C 1391.427725 958.58117 1409.469985 976.82915 1409.469985 999.18935 C 1409.469985 1021.678057 1391.427725 1039.797529 1368.906891 1039.797529 C 1346.514016 1039.797529 1328.343797 1021.678057 1328.343797 999.18935 Z M 1328.343797 999.18935 " stroke="#181821" stroke-width="28" stroke-opacity="1" stroke-miterlimit="10"/><path stroke-linecap="round" transform="matrix(0.0305273, 0, 0, -0.0303972, 28.984422, 146.290528)" fill="none" stroke-linejoin="round" d="M 1647.474256 1101.994867 C 1647.474256 1079.634667 1665.644475 1061.515195 1688.03735 1061.515195 C 1710.430225 1061.515195 1728.600444 1079.634667 1728.600444 1101.994867 C 1728.600444 1124.483574 1710.430225 1142.603047 1688.03735 1142.603047 C 1665.644475 1142.603047 1647.474256 1124.483574 1647.474256 1101.994867 Z M 1647.474256 1101.994867 " stroke="#181821" stroke-width="28" stroke-opacity="1" stroke-miterlimit="10"/><path stroke-linecap="round" transform="matrix(0.0305273, 0, 0, -0.0303972, 28.984422, 146.290528)" fill="none" stroke-linejoin="round" d="M 1940.245103 2603.983483 L 1657.838959 2886.313136 L 1657.838959 3076.24633 L 1512.861088 3221.330617 " stroke="#181821" stroke-width="28" stroke-opacity="1" stroke-miterlimit="10"/><g clip-path="url(#0f4bb000e0)"><path stroke-linecap="round" transform="matrix(0.0305273, 0, 0, -0.0303972, 28.984422, 146.290528)" fill-opacity="1" fill="#f4f4f4" fill-rule="nonzero" stroke-linejoin="round" d="M 1913.757531 848.964787 L 2794.757214 2263.697219 L 2242.101058 2263.697219 L 2567.757441 3403.03937 L 1457.326757 1957.079762 L 2250.162493 1957.079762 L 1913.757531 848.964787 " stroke="#181821" stroke-width="28" stroke-opacity="1" stroke-miterlimit="10"/></g><path stroke-linecap="round" transform="matrix(0.0305273, 0, 0, -0.0303972, 28.984422, 146.290528)" fill="none" stroke-linejoin="round" d="M 1712.861452 2033.79838 L 2196.675512 2033.79838 " stroke="#181821" stroke-width="28" stroke-opacity="1" stroke-miterlimit="10"/><path fill="#181821" d="M 98.316406 84.46875 C 98.316406 84.808594 98.042969 85.085938 97.699219 85.085938 C 97.359375 85.085938 97.082031 84.808594 97.082031 84.46875 C 97.082031 84.128906 97.359375 83.855469 97.699219 83.855469 C 98.042969 83.855469 98.316406 84.128906 98.316406 84.46875 " fill-opacity="1" fill-rule="nonzero"/></svg>